# xmcd CD database file
#
# Track frame offsets:
#	182
#	14260
#	31610
#	46975
#	60690
#	76085
#	95897
#	111435
#	129577
#	142970
#	162295
#
# Disc length: 2369 seconds
#
# Revision: 0
# Processed by: cddbd v1.4PL0 Copyright (c) Steve Scherf et al.
# Submitted via: CDex 1.40Beta9
#
DISCID=89093f0b
DTITLE=Various Artist - Believe, A Christmas Collection
DYEAR=2000
DGENRE=Country
TTITLE0=Neal McCoy;Christmas Medely
TTITLE1=Don Williams;Pretty Little Christmas Child
TTITLE2=Clay Walker;Cowboy Christmas
TTITLE3=Keith Harling;Santa`s Got A Semi
TTITLE4=Neal McCoy;Merry Christmas Darling
TTITLE5=Johnny Staats Project;Christmas Mandolin
TTITLE6=Kenny Rogers;The Christmas Song
TTITLE7=Johnny Staats Project;What Child Is This
TTITLE8=Clay Walker;Blue Christmas
TTITLE9=George Middleman;O Come All Ye Faithful
TTITLE10=Don Williams;Twas The Night Before Christmas
EXTD=YEAR: 2000 ID3G: 2
EXTT0=
EXTT1=
EXTT2=
EXTT3=
EXTT4=
EXTT5=
EXTT6=
EXTT7=
EXTT8=
EXTT9=
EXTT10=
PLAYORDER=
